<?xml version="1.0" encoding="UTF-8"?>
<mxfile host="app.diagrams.net" modified="2025-07-28T08:00:00.000Z" agent="5.0" etag="hld123" version="24.6.4" type="device">
  <diagram name="System Overview" id="overview">
    <mxGraphModel dx="1422" dy="794" grid="1" gridSize="10" guides="1" tooltips="1" connect="1" arrows="1" fold="1" page="1" pageScale="1" pageWidth="1169" pageHeight="827" math="0" shadow="0">
      <root>
        <mxCell id="0" />
        <mxCell id="1" parent="0" />
        
        <mxCell id="title" value="Vehicle Price Prediction System - High Level Design" style="text;strokeColor=none;fillColor=none;html=1;fontSize=24;fontStyle=1;verticalAlign=middle;align=center;" vertex="1" parent="1">
          <mxGeometry x="200" y="20" width="700" height="40" as="geometry" />
        </mxCell>
        
        <mxCell id="overview-box" value="SYSTEM OVERVIEW" style="rounded=1;whiteSpace=wrap;html=1;fontSize=16;fontStyle=1;fillColor=#e1d5e7;strokeColor=#9673a6;" vertex="1" parent="1">
          <mxGeometry x="50" y="80" width="1070" height="40" as="geometry" />
        </mxCell>
        
        <mxCell id="purpose" value="PURPOSE&#xa;&#xa;AI-powered vehicle price prediction system using multi-agent architecture&#xa;• Accurate ML-based price estimation (85% confidence)&#xa;• Transparent explanations with AI reasoning&#xa;• Real-time market analysis and insights&#xa;• RESTful API with comprehensive documentation" style="rounded=1;whiteSpace=wrap;html=1;fillColor=#d4edda;strokeColor=#28a745;fontSize=12;align=left;" vertex="1" parent="1">
          <mxGeometry x="70" y="140" width="320" height="120" as="geometry" />
        </mxCell>
        
        <mxCell id="features" value="KEY FEATURES&#xa;&#xa;• Random Forest ML Model (RMSE: 658.05)&#xa;• 6 Specialized Agents (Multi-Agent System)&#xa;• Market Data Analysis and Trends&#xa;• AI-Powered Explanations (FAISS)&#xa;• FastAPI REST Interface&#xa;• Web Application UI&#xa;• Comprehensive Logging and Monitoring" style="rounded=1;whiteSpace=wrap;html=1;fillColor=#d1ecf1;strokeColor=#0c5460;fontSize=12;align=left;" vertex="1" parent="1">
          <mxGeometry x="420" y="140" width="320" height="120" as="geometry" />
        </mxCell>
        
        <mxCell id="business-value" value="BUSINESS VALUE&#xa;&#xa;• Cost Reduction: Automated pricing decisions&#xa;• Revenue Growth: Better pricing strategies&#xa;• Market Advantage: Data-driven insights&#xa;• Operational Efficiency: Reduced manual work&#xa;• Analytics: Usage metrics and performance&#xa;• Transparency: Clear pricing justification" style="rounded=1;whiteSpace=wrap;html=1;fillColor=#fff3cd;strokeColor=#856404;fontSize=12;align=left;" vertex="1" parent="1">
          <mxGeometry x="770" y="140" width="320" height="120" as="geometry" />
        </mxCell>
        
        <mxCell id="arch-title" value="4-LAYER SYSTEM ARCHITECTURE" style="rounded=1;whiteSpace=wrap;html=1;fontSize=16;fontStyle=1;fillColor=#e1d5e7;strokeColor=#9673a6;" vertex="1" parent="1">
          <mxGeometry x="50" y="300" width="1070" height="40" as="geometry" />
        </mxCell>
        
        <mxCell id="client-layer" value="CLIENT LAYER" style="rounded=1;whiteSpace=wrap;html=1;fontSize=14;fontStyle=1;fillColor=#dae8fc;strokeColor=#6c8ebf;" vertex="1" parent="1">
          <mxGeometry x="100" y="360" width="950" height="30" as="geometry" />
        </mxCell>
        
        <mxCell id="client-components" value="Web Browser | API Clients | Mobile Apps (Future) | Swagger UI Documentation" style="rounded=1;whiteSpace=wrap;html=1;fillColor=#f8f9fa;strokeColor=#6c757d;fontSize=12;" vertex="1" parent="1">
          <mxGeometry x="120" y="400" width="910" height="30" as="geometry" />
        </mxCell>
        
        <mxCell id="api-layer" value="API GATEWAY LAYER" style="rounded=1;whiteSpace=wrap;html=1;fontSize=14;fontStyle=1;fillColor=#fff2cc;strokeColor=#d6b656;" vertex="1" parent="1">
          <mxGeometry x="100" y="450" width="950" height="30" as="geometry" />
        </mxCell>
        
        <mxCell id="api-components" value="FastAPI Server (Uvicorn) | CORS Middleware | Error Handling | Static Files | Jinja2 Templates" style="rounded=1;whiteSpace=wrap;html=1;fillColor=#f8f9fa;strokeColor=#6c757d;fontSize=12;" vertex="1" parent="1">
          <mxGeometry x="120" y="490" width="910" height="30" as="geometry" />
        </mxCell>
        
        <mxCell id="business-layer" value="BUSINESS LOGIC LAYER (Multi-Agent System)" style="rounded=1;whiteSpace=wrap;html=1;fontSize=14;fontStyle=1;fillColor=#d5e8d4;strokeColor=#82b366;" vertex="1" parent="1">
          <mxGeometry x="100" y="540" width="950" height="30" as="geometry" />
        </mxCell>
        
        <mxCell id="agents" value="Main Agent (Orchestrator) | Model Agent | Market Agent | Explainer Agent | Insight Agent | Logger Agent" style="rounded=1;whiteSpace=wrap;html=1;fillColor=#f8f9fa;strokeColor=#6c757d;fontSize=12;" vertex="1" parent="1">
          <mxGeometry x="120" y="580" width="910" height="30" as="geometry" />
        </mxCell>
        
        <mxCell id="data-layer" value="DATA LAYER" style="rounded=1;whiteSpace=wrap;html=1;fontSize=14;fontStyle=1;fillColor=#e6f3ff;strokeColor=#0066cc;" vertex="1" parent="1">
          <mxGeometry x="100" y="630" width="950" height="30" as="geometry" />
        </mxCell>
        
        <mxCell id="data-components" value="Historical Data (CSV) | Market Trends | ML Model (Pickle) | SQLite DB | FAISS Index | Knowledge Docs" style="rounded=1;whiteSpace=wrap;html=1;fillColor=#f8f9fa;strokeColor=#6c757d;fontSize=12;" vertex="1" parent="1">
          <mxGeometry x="120" y="670" width="910" height="30" as="geometry" />
        </mxCell>
        
        <mxCell id="arrow1" style="edgeStyle=orthogonalEdgeStyle;rounded=0;orthogonalLoop=1;jettySize=auto;html=1;strokeWidth=3;strokeColor=#d79b00;" edge="1" parent="1" source="client-layer" target="api-layer">
          <mxGeometry relative="1" as="geometry" />
        </mxCell>
        
        <mxCell id="arrow2" style="edgeStyle=orthogonalEdgeStyle;rounded=0;orthogonalLoop=1;jettySize=auto;html=1;strokeWidth=3;strokeColor=#d79b00;" edge="1" parent="1" source="api-layer" target="business-layer">
          <mxGeometry relative="1" as="geometry" />
        </mxCell>
        
        <mxCell id="arrow3" style="edgeStyle=orthogonalEdgeStyle;rounded=0;orthogonalLoop=1;jettySize=auto;html=1;strokeWidth=3;strokeColor=#d79b00;" edge="1" parent="1" source="business-layer" target="data-layer">
          <mxGeometry relative="1" as="geometry" />
        </mxCell>
        
        <mxCell id="principles-title" value="DESIGN PRINCIPLES" style="text;strokeColor=none;fillColor=none;html=1;fontSize=14;fontStyle=1;verticalAlign=middle;align=center;" vertex="1" parent="1">
          <mxGeometry x="100" y="720" width="200" height="30" as="geometry" />
        </mxCell>
        
        <mxCell id="principles" value="• Separation of Concerns: Each layer has distinct responsibilities&#xa;• Modularity: Components are loosely coupled and highly cohesive&#xa;• Scalability: Architecture supports horizontal and vertical scaling&#xa;• Maintainability: Clear structure for easy updates and debugging&#xa;• Extensibility: Easy to add new features and agents" style="rounded=1;whiteSpace=wrap;html=1;fillColor=#f8f9fa;strokeColor=#6c757d;fontSize=11;align=left;" vertex="1" parent="1">
          <mxGeometry x="100" y="750" width="950" height="70" as="geometry" />
        </mxCell>
        
      </root>
    </mxGraphModel>
  </diagram>
  
  <diagram name="Multi-Agent System" id="agents">
    <mxGraphModel dx="1422" dy="794" grid="1" gridSize="10" guides="1" tooltips="1" connect="1" arrows="1" fold="1" page="1" pageScale="1" pageWidth="1169" pageHeight="827" math="0" shadow="0">
      <root>
        <mxCell id="0" />
        <mxCell id="1" parent="0" />
        
        <mxCell id="agent-title" value="Multi-Agent System Design and Data Flow" style="text;strokeColor=none;fillColor=none;html=1;fontSize=22;fontStyle=1;verticalAlign=middle;align=center;" vertex="1" parent="1">
          <mxGeometry x="250" y="20" width="600" height="40" as="geometry" />
        </mxCell>
        
        <mxCell id="main-agent" value="MAIN AGENT&#xa;(Orchestrator)&#xa;&#xa;Perceive-Decide-Act Pattern:&#xa;• PERCEIVE: Input validation&#xa;• DECIDE: Agent coordination&#xa;• ACT: Response generation&#xa;&#xa;Response Time: ~300ms" style="ellipse;whiteSpace=wrap;html=1;fillColor=#d4edda;strokeColor=#28a745;fontSize=12;fontStyle=1;" vertex="1" parent="1">
          <mxGeometry x="450" y="350" width="200" height="140" as="geometry" />
        </mxCell>
        
        <mxCell id="model-agent" value="MODEL AGENT&#xa;&#xa;• Load Random Forest model&#xa;• Feature preprocessing&#xa;• Price prediction execution&#xa;• Model validation&#xa;&#xa;Input: Vehicle features&#xa;Output: Price + confidence&#xa;Accuracy: 85%" style="rounded=1;whiteSpace=wrap;html=1;fillColor=#cce5ff;strokeColor=#0066cc;fontSize=10;" vertex="1" parent="1">
          <mxGeometry x="150" y="100" width="180" height="120" as="geometry" />
        </mxCell>
        
        <mxCell id="market-agent" value="MARKET AGENT&#xa;&#xa;• Data loading and merging&#xa;• Market trend analysis&#xa;• Real-time data processing&#xa;• External API integration&#xa;&#xa;Input: CSV files&#xa;Output: Market insights&#xa;Processing: ~150ms" style="rounded=1;whiteSpace=wrap;html=1;fillColor=#fff2cc;strokeColor=#d6b656;fontSize=10;" vertex="1" parent="1">
          <mxGeometry x="700" y="100" width="180" height="120" as="geometry" />
        </mxCell>
        
        <mxCell id="explainer-agent" value="EXPLAINER AGENT&#xa;&#xa;• FAISS vector similarity search&#xa;• AI-powered explanations&#xa;• Feature importance analysis&#xa;• Human-readable reasoning&#xa;&#xa;Input: Prediction context&#xa;Output: Explanations&#xa;Vector DB: 384 dimensions" style="rounded=1;whiteSpace=wrap;html=1;fillColor=#e6ffe6;strokeColor=#00cc44;fontSize=10;" vertex="1" parent="1">
          <mxGeometry x="150" y="600" width="180" height="120" as="geometry" />
        </mxCell>
        
        <mxCell id="insight-agent" value="INSIGHT AGENT&#xa;&#xa;• Market recommendations&#xa;• Price trend analysis&#xa;• Investment advice&#xa;• Risk assessment&#xa;&#xa;Input: Market data + prediction&#xa;Output: Strategic insights&#xa;Confidence: High" style="rounded=1;whiteSpace=wrap;html=1;fillColor=#ffe6f2;strokeColor=#cc0066;fontSize=10;" vertex="1" parent="1">
          <mxGeometry x="700" y="600" width="180" height="120" as="geometry" />
        </mxCell>
        
        <mxCell id="logger-agent" value="LOGGER AGENT&#xa;&#xa;• Prediction audit logging&#xa;• Performance metrics&#xa;• Error monitoring&#xa;• Database operations&#xa;&#xa;Input: All activities&#xa;Output: Audit trail&#xa;Storage: SQLite" style="rounded=1;whiteSpace=wrap;html=1;fillColor=#f0f0f0;strokeColor=#666666;fontSize=10;" vertex="1" parent="1">
          <mxGeometry x="450" y="100" width="180" height="120" as="geometry" />
        </mxCell>
        
        <mxCell id="comm1" style="edgeStyle=orthogonalEdgeStyle;rounded=0;orthogonalLoop=1;jettySize=auto;html=1;strokeWidth=2;strokeColor=#28a745;startArrow=classic;startFill=1;" edge="1" parent="1" source="main-agent" target="model-agent">
          <mxGeometry relative="1" as="geometry" />
        </mxCell>
        
        <mxCell id="comm2" style="edgeStyle=orthogonalEdgeStyle;rounded=0;orthogonalLoop=1;jettySize=auto;html=1;strokeWidth=2;strokeColor=#d6b656;startArrow=classic;startFill=1;" edge="1" parent="1" source="main-agent" target="market-agent">
          <mxGeometry relative="1" as="geometry" />
        </mxCell>
        
        <mxCell id="comm3" style="edgeStyle=orthogonalEdgeStyle;rounded=0;orthogonalLoop=1;jettySize=auto;html=1;strokeWidth=2;strokeColor=#00cc44;startArrow=classic;startFill=1;" edge="1" parent="1" source="main-agent" target="explainer-agent">
          <mxGeometry relative="1" as="geometry" />
        </mxCell>
        
        <mxCell id="comm4" style="edgeStyle=orthogonalEdgeStyle;rounded=0;orthogonalLoop=1;jettySize=auto;html=1;strokeWidth=2;strokeColor=#cc0066;startArrow=classic;startFill=1;" edge="1" parent="1" source="main-agent" target="insight-agent">
          <mxGeometry relative="1" as="geometry" />
        </mxCell>
        
        <mxCell id="comm5" style="edgeStyle=orthogonalEdgeStyle;rounded=0;orthogonalLoop=1;jettySize=auto;html=1;strokeWidth=2;strokeColor=#666666;startArrow=classic;startFill=1;" edge="1" parent="1" source="main-agent" target="logger-agent">
          <mxGeometry relative="1" as="geometry" />
        </mxCell>
        
        <mxCell id="patterns-title" value="DESIGN PATTERNS" style="text;strokeColor=none;fillColor=none;html=1;fontSize=14;fontStyle=1;verticalAlign=middle;align=center;" vertex="1" parent="1">
          <mxGeometry x="950" y="300" width="200" height="30" as="geometry" />
        </mxCell>
        
        <mxCell id="patterns" value="• Orchestrator Pattern: Main Agent coordinates&#xa;• Observer Pattern: Logger monitors all&#xa;• Strategy Pattern: Different algorithms&#xa;• Factory Pattern: Agent creation&#xa;• Chain of Responsibility: Sequential processing&#xa;• Command Pattern: Task execution&#xa;• Facade Pattern: Simple API interface" style="rounded=1;whiteSpace=wrap;html=1;fillColor=#f8f9fa;strokeColor=#6c757d;fontSize=10;align=left;" vertex="1" parent="1">
          <mxGeometry x="950" y="340" width="200" height="140" as="geometry" />
        </mxCell>
        
        <mxCell id="metrics-title" value="PERFORMANCE METRICS" style="text;strokeColor=none;fillColor=none;html=1;fontSize=14;fontStyle=1;verticalAlign=middle;align=center;" vertex="1" parent="1">
          <mxGeometry x="950" y="500" width="200" height="30" as="geometry" />
        </mxCell>
        
        <mxCell id="metrics" value="• Training RMSE: 658.05&#xa;• Test RMSE: 2670.00&#xa;• Prediction Accuracy: ~85%&#xa;• Response Time: 200-500ms&#xa;• Concurrent Users: 50-100&#xa;• Requests/Second: 100-200&#xa;• Model Features: 4&#xa;• Model Size: ~50MB" style="rounded=1;whiteSpace=wrap;html=1;fillColor=#d1ecf1;strokeColor=#0c5460;fontSize=10;align=left;" vertex="1" parent="1">
          <mxGeometry x="950" y="540" width="200" height="140" as="geometry" />
        </mxCell>
        
      </root>
    </mxGraphModel>
  </diagram>
</mxfile>
